<?xml version="1.0" encoding="UTF-8" standalone="no"?>
<!-- Created with Inkscape (http://www.inkscape.org/) -->

<svg
   xmlns:dc="http://purl.org/dc/elements/1.1/"
   xmlns:cc="http://creativecommons.org/ns#"
   xmlns:rdf="http://www.w3.org/1999/02/22-rdf-syntax-ns#"
   xmlns:svg="http://www.w3.org/2000/svg"
   xmlns="http://www.w3.org/2000/svg"
   xmlns:xlink="http://www.w3.org/1999/xlink"
   xmlns:sodipodi="http://sodipodi.sourceforge.net/DTD/sodipodi-0.dtd"
   xmlns:inkscape="http://www.inkscape.org/namespaces/inkscape"
   id="svg2985"
   version="1.1"
   inkscape:version="0.48.5 r10040"
   width="416.79758"
   height="151.05017"
   xml:space="preserve"
   sodipodi:docname="140182-1-v2.1-j2b-synth-laser-cut-v3-left.svg"><metadata
     id="metadata2991"><rdf:RDF><cc:Work
         rdf:about=""><dc:format>image/svg+xml</dc:format><dc:type
           rdf:resource="http://purl.org/dc/dcmitype/StillImage" /><dc:title /></cc:Work></rdf:RDF></metadata><defs
     id="defs2989"><color-profile
       name="sRGB-IEC61966-2.1"
       xlink:href="C:\windows\system32\spool\drivers\color\sRGB Color Space Profile.icm"
       id="color-profile5426" /><clipPath
       clipPathUnits="userSpaceOnUse"
       id="clipPath3127"><path
         d="m 2315.4,1779.86 35.918,0 0,35.6992 -35.918,0 0,-35.6992 z"
         id="path3129"
         inkscape:connector-curvature="0" /></clipPath><clipPath
       clipPathUnits="userSpaceOnUse"
       id="clipPath3137"><path
         d="m 2283.91,1779.86 32.5938,0 0,0.8867 -32.5938,0 0,-0.8867 z"
         id="path3139"
         inkscape:connector-curvature="0" /></clipPath><clipPath
       clipPathUnits="userSpaceOnUse"
       id="clipPath3147"><path
         d="m 2249.11,1779.86 35.918,0 0,35.6992 -35.918,0 0,-35.6992 z"
         id="path3149"
         inkscape:connector-curvature="0" /></clipPath><clipPath
       clipPathUnits="userSpaceOnUse"
       id="clipPath3161"><path
         d="m 8247.23,1779.86 35.918,0 0,35.6992 -35.918,0 0,-35.6992 z"
         id="path3163"
         inkscape:connector-curvature="0" /></clipPath><clipPath
       clipPathUnits="userSpaceOnUse"
       id="clipPath3171"><path
         d="m 8215.75,1779.86 32.5938,0 0,0.8867 -32.5938,0 0,-0.8867 z"
         id="path3173"
         inkscape:connector-curvature="0" /></clipPath><clipPath
       clipPathUnits="userSpaceOnUse"
       id="clipPath3181"><path
         d="m 8180.94,1779.86 35.918,0 0,35.6992 -35.918,0 0,-35.6992 z"
         id="path3183"
         inkscape:connector-curvature="0" /></clipPath></defs><sodipodi:namedview
     pagecolor="#ffffff"
     bordercolor="#666666"
     borderopacity="1"
     objecttolerance="10"
     gridtolerance="10"
     guidetolerance="10"
     inkscape:pageopacity="0"
     inkscape:pageshadow="2"
     inkscape:window-width="1366"
     inkscape:window-height="716"
     id="namedview2987"
     showgrid="false"
     inkscape:document-units="mm"
     units="mm"
     fit-margin-top="5"
     fit-margin-left="5"
     fit-margin-right="5"
     fit-margin-bottom="5"
     inkscape:zoom="0.89673726"
     inkscape:cx="106.20695"
     inkscape:cy="42.322299"
     inkscape:window-x="-8"
     inkscape:window-y="-8"
     inkscape:window-maximized="1"
     inkscape:current-layer="g2993" /><g
     id="g2993"
     inkscape:groupmode="layer"
     inkscape:label="140182-1-v2.1-j2b-synth-laser-cut-v3"
     transform="matrix(1.25,0,0,-1.25,-288.17961,676.91882)"><g
       id="g9627"
       transform="matrix(0,1,-1,0,821.28183,357.73404)"><path
         d="m 161.08183,568.28929 0,-140.31002"
         style="fill:none;stroke:#000000;stroke-width:0.02834646;stroke-linecap:round;stroke-linejoin:round;stroke-miterlimit:10;stroke-opacity:1;stroke-dasharray:none"
         id="path3051"
         inkscape:connector-curvature="0" /><path
         d="m 161.08183,420.05893 0,-140.31001"
         style="fill:none;stroke:#000000;stroke-width:0.02834646;stroke-linecap:round;stroke-linejoin:round;stroke-miterlimit:10;stroke-opacity:1;stroke-dasharray:none"
         id="path3053"
         inkscape:connector-curvature="0" /><path
         d="m 161.08183,576.51488 -75.401543,0"
         style="fill:none;stroke:#000000;stroke-width:0.02834646;stroke-linecap:round;stroke-linejoin:round;stroke-miterlimit:10;stroke-opacity:1;stroke-dasharray:none"
         id="path3055"
         inkscape:connector-curvature="0" /><path
         d="m 161.08183,271.52333 -75.401543,0"
         style="fill:none;stroke:#000000;stroke-width:0.02834646;stroke-linecap:round;stroke-linejoin:round;stroke-miterlimit:10;stroke-opacity:1;stroke-dasharray:none"
         id="path3057"
         inkscape:connector-curvature="0" /><path
         d="m 161.08183,427.97927 0,-7.92034"
         style="fill:none;stroke:#000000;stroke-width:0.02834646;stroke-linecap:round;stroke-linejoin:round;stroke-miterlimit:10;stroke-opacity:1;stroke-dasharray:none"
         id="path3063"
         inkscape:connector-curvature="0" /><path
         d="m 85.680287,279.74892 0,140.31001"
         style="fill:none;stroke:#000000;stroke-width:0.02834646;stroke-linecap:round;stroke-linejoin:round;stroke-miterlimit:10;stroke-opacity:1;stroke-dasharray:none"
         id="path3065"
         inkscape:connector-curvature="0" /><path
         d="m 85.680287,427.97927 0,135.77344"
         style="fill:none;stroke:#000000;stroke-width:0.02834646;stroke-linecap:round;stroke-linejoin:round;stroke-miterlimit:10;stroke-opacity:1;stroke-dasharray:none"
         id="path3067"
         inkscape:connector-curvature="0" /><path
         d="m 85.680287,563.75271 0,4.53658"
         style="fill:none;stroke:#000000;stroke-width:0.02834646;stroke-linecap:round;stroke-linejoin:round;stroke-miterlimit:10;stroke-opacity:1;stroke-dasharray:none"
         id="path3069"
         inkscape:connector-curvature="0" /><path
         d="m 85.680287,420.05893 0,7.92034"
         style="fill:none;stroke:#000000;stroke-width:0.02834646;stroke-linecap:round;stroke-linejoin:round;stroke-miterlimit:10;stroke-opacity:1;stroke-dasharray:none"
         id="path3071"
         inkscape:connector-curvature="0" /><path
         d="m 77.184106,272.36927 0,6.51585"
         style="fill:none;stroke:#000000;stroke-width:0.02834646;stroke-linecap:round;stroke-linejoin:round;stroke-miterlimit:10;stroke-opacity:1;stroke-dasharray:none"
         id="path3099"
         inkscape:connector-curvature="0" /><path
         d="m 85.680287,271.52333 -7.650403,0"
         style="fill:none;stroke:#000000;stroke-width:0.02834646;stroke-linecap:round;stroke-linejoin:round;stroke-miterlimit:10;stroke-opacity:1;stroke-dasharray:none"
         id="path3101"
         inkscape:connector-curvature="0" /><path
         d="m 77.184106,272.36927 0.01802,-0.21595 0.08979,-0.21595 0.12616,-0.16237 0.179823,-0.1437 0.215951,-0.0901 0.216031,-0.0179"
         style="fill:none;stroke:#000000;stroke-width:0.02834646;stroke-linecap:round;stroke-linejoin:round;stroke-miterlimit:10;stroke-opacity:1;stroke-dasharray:none"
         id="path3103"
         inkscape:connector-curvature="0" /><path
         d="m 85.680287,279.74892 -7.650403,0"
         style="fill:none;stroke:#000000;stroke-width:0.02834646;stroke-linecap:round;stroke-linejoin:round;stroke-miterlimit:10;stroke-opacity:1;stroke-dasharray:none"
         id="path3105"
         inkscape:connector-curvature="0" /><path
         d="m 78.029884,279.74892 -0.216031,-0.0357 -0.215951,-0.0901 -0.179823,-0.12583 -0.12616,-0.18023 -0.08979,-0.19809 -0.01802,-0.23381"
         style="fill:none;stroke:#000000;stroke-width:0.02834646;stroke-linecap:round;stroke-linejoin:round;stroke-miterlimit:10;stroke-opacity:1;stroke-dasharray:none"
         id="path3107"
         inkscape:connector-curvature="0" /><path
         d="m 77.184106,569.15309 0,6.51585"
         style="fill:none;stroke:#000000;stroke-width:0.02834646;stroke-linecap:round;stroke-linejoin:round;stroke-miterlimit:10;stroke-opacity:1;stroke-dasharray:none"
         id="path3109"
         inkscape:connector-curvature="0" /><path
         d="m 85.680287,568.28929 -7.650403,0"
         style="fill:none;stroke:#000000;stroke-width:0.02834646;stroke-linecap:round;stroke-linejoin:round;stroke-miterlimit:10;stroke-opacity:1;stroke-dasharray:none"
         id="path3111"
         inkscape:connector-curvature="0" /><path
         d="m 77.184106,569.15309 0.01802,-0.23381 0.08979,-0.19809 0.12616,-0.18023 0.179823,-0.12584 0.215951,-0.0901 0.216031,-0.0357"
         style="fill:none;stroke:#000000;stroke-width:0.02834646;stroke-linecap:round;stroke-linejoin:round;stroke-miterlimit:10;stroke-opacity:1;stroke-dasharray:none"
         id="path3113"
         inkscape:connector-curvature="0" /><path
         d="m 85.680287,576.51488 -7.650403,0"
         style="fill:none;stroke:#000000;stroke-width:0.02834646;stroke-linecap:round;stroke-linejoin:round;stroke-miterlimit:10;stroke-opacity:1;stroke-dasharray:none"
         id="path3115"
         inkscape:connector-curvature="0" /><path
         d="m 78.029884,576.51488 -0.216031,-0.0179 -0.215951,-0.0901 -0.179823,-0.1437 -0.12616,-0.16237 -0.08979,-0.21595 -0.01802,-0.21595"
         style="fill:none;stroke:#000000;stroke-width:0.02834646;stroke-linecap:round;stroke-linejoin:round;stroke-miterlimit:10;stroke-opacity:1;stroke-dasharray:none"
         id="path3117"
         inkscape:connector-curvature="0" /><path
         d="m 169.57777,278.88512 0,-6.51585"
         style="fill:none;stroke:#000000;stroke-width:0.02834646;stroke-linecap:round;stroke-linejoin:round;stroke-miterlimit:10;stroke-opacity:1;stroke-dasharray:none"
         id="path3233"
         inkscape:connector-curvature="0" /><path
         d="m 161.08183,279.74892 7.65,0"
         style="fill:none;stroke:#000000;stroke-width:0.02834646;stroke-linecap:round;stroke-linejoin:round;stroke-miterlimit:10;stroke-opacity:1;stroke-dasharray:none"
         id="path3235"
         inkscape:connector-curvature="0" /><path
         d="m 169.57777,278.88512 -0.0179,0.23381 -0.0901,0.19809 -0.1437,0.18023 -0.16236,0.12583 -0.21595,0.0901 -0.21595,0.0357"
         style="fill:none;stroke:#000000;stroke-width:0.02834646;stroke-linecap:round;stroke-linejoin:round;stroke-miterlimit:10;stroke-opacity:1;stroke-dasharray:none"
         id="path3237"
         inkscape:connector-curvature="0" /><path
         d="m 161.08183,271.52333 7.65,0"
         style="fill:none;stroke:#000000;stroke-width:0.02834646;stroke-linecap:round;stroke-linejoin:round;stroke-miterlimit:10;stroke-opacity:1;stroke-dasharray:none"
         id="path3239"
         inkscape:connector-curvature="0" /><path
         d="m 168.73183,271.52333 0.21595,0.0179 0.21595,0.0901 0.16236,0.1437 0.1437,0.16237 0.0901,0.21595 0.0179,0.21595"
         style="fill:none;stroke:#000000;stroke-width:0.02834646;stroke-linecap:round;stroke-linejoin:round;stroke-miterlimit:10;stroke-opacity:1;stroke-dasharray:none"
         id="path3241"
         inkscape:connector-curvature="0" /><path
         d="m 169.57777,575.66894 0,-6.51585"
         style="fill:none;stroke:#000000;stroke-width:0.02834646;stroke-linecap:round;stroke-linejoin:round;stroke-miterlimit:10;stroke-opacity:1;stroke-dasharray:none"
         id="path3243"
         inkscape:connector-curvature="0" /><path
         d="m 161.08183,576.51488 7.65,0"
         style="fill:none;stroke:#000000;stroke-width:0.02834646;stroke-linecap:round;stroke-linejoin:round;stroke-miterlimit:10;stroke-opacity:1;stroke-dasharray:none"
         id="path3245"
         inkscape:connector-curvature="0" /><path
         d="m 169.57777,575.66894 -0.0179,0.21595 -0.0901,0.21595 -0.1437,0.16237 -0.16236,0.1437 -0.21595,0.0901 -0.21595,0.0179"
         style="fill:none;stroke:#000000;stroke-width:0.02834646;stroke-linecap:round;stroke-linejoin:round;stroke-miterlimit:10;stroke-opacity:1;stroke-dasharray:none"
         id="path3247"
         inkscape:connector-curvature="0" /><path
         d="m 161.08183,568.28929 7.65,0"
         style="fill:none;stroke:#000000;stroke-width:0.02834646;stroke-linecap:round;stroke-linejoin:round;stroke-miterlimit:10;stroke-opacity:1;stroke-dasharray:none"
         id="path3249"
         inkscape:connector-curvature="0" /><path
         d="m 168.73183,568.28929 0.21595,0.0357 0.21595,0.0901 0.16236,0.12584 0.1437,0.18023 0.0901,0.19809 0.0179,0.23381"
         style="fill:none;stroke:#000000;stroke-width:0.02834646;stroke-linecap:round;stroke-linejoin:round;stroke-miterlimit:10;stroke-opacity:1;stroke-dasharray:none"
         id="path3251"
         inkscape:connector-curvature="0" /><path
         d="m 137.25018,506.09887 c 0,-2.33973 -1.90783,-4.24757 -4.24838,-4.24757 -2.33973,0 -4.24756,1.90784 -4.24756,4.24757 0,2.34054 1.90783,4.24837 4.24756,4.24837 2.34055,0 4.24838,-1.90783 4.24838,-4.24837 z"
         style="fill:none;stroke:#000000;stroke-width:0.02834646;stroke-linecap:round;stroke-linejoin:round;stroke-miterlimit:10;stroke-opacity:1;stroke-dasharray:none"
         id="path3311"
         inkscape:connector-curvature="0" /><path
         d="m 131.79622,298.01864 c 0,-6.26337 -5.07646,-11.33983 -11.34064,-11.33983 -6.26337,0 -11.33982,5.07646 -11.33982,11.33983 0,6.26418 5.07645,11.34063 11.33982,11.34063 6.26418,0 11.34064,-5.07645 11.34064,-11.34063 z"
         style="fill:none;stroke:#000000;stroke-width:0.02834646;stroke-linecap:round;stroke-linejoin:round;stroke-miterlimit:10;stroke-opacity:1;stroke-dasharray:none"
         id="path3313"
         inkscape:connector-curvature="0" /><path
         d="m 139.73442,352.01918 c 0,-5.47182 -4.44647,-9.91828 -9.91829,-9.91828 -5.47182,0 -9.91828,4.44646 -9.91828,9.91828 0,5.47183 4.44646,9.91748 9.91828,9.91748 5.47182,0 9.91829,-4.44565 9.91829,-9.91748 z"
         style="fill:none;stroke:#000000;stroke-width:0.02834646;stroke-linecap:round;stroke-linejoin:round;stroke-miterlimit:10;stroke-opacity:1;stroke-dasharray:none"
         id="path3315"
         inkscape:connector-curvature="0" /><path
         d="m 139.24812,547.4988 0,0.10798"
         style="fill:none;stroke:#000000;stroke-width:0.02834646;stroke-linecap:round;stroke-linejoin:round;stroke-miterlimit:10;stroke-opacity:1;stroke-dasharray:none"
         id="path3317"
         inkscape:connector-curvature="0" /><path
         d="m 139.24812,547.4988 0,-8.96356"
         style="fill:none;stroke:#000000;stroke-width:0.02834646;stroke-linecap:round;stroke-linejoin:round;stroke-miterlimit:10;stroke-opacity:1;stroke-dasharray:none"
         id="path3319"
         inkscape:connector-curvature="0" /><path
         d="m 139.24812,547.60678 0,8.78414"
         style="fill:none;stroke:#000000;stroke-width:0.02834646;stroke-linecap:round;stroke-linejoin:round;stroke-miterlimit:10;stroke-opacity:1;stroke-dasharray:none"
         id="path3321"
         inkscape:connector-curvature="0" /><path
         d="m 139.24812,556.39092 -0.0179,0.39618 -0.0901,0.39618 -0.1437,0.3775 -0.1989,0.36046 -0.233,0.32393 -0.28901,0.2882 -0.32312,0.25167 -0.36046,0.18023 -0.3775,0.1437 -0.39618,0.0901 -0.39618,0.0357"
         style="fill:none;stroke:#000000;stroke-width:0.02834646;stroke-linecap:round;stroke-linejoin:round;stroke-miterlimit:10;stroke-opacity:1;stroke-dasharray:none"
         id="path3323"
         inkscape:connector-curvature="0" /><path
         d="m 136.4221,559.2348 -7.65,0"
         style="fill:none;stroke:#000000;stroke-width:0.02834646;stroke-linecap:round;stroke-linejoin:round;stroke-miterlimit:10;stroke-opacity:1;stroke-dasharray:none"
         id="path3325"
         inkscape:connector-curvature="0" /><path
         d="m 128.7721,559.2348 -0.41404,-0.0357 -0.39618,-0.0901 -0.37751,-0.1437 -0.36045,-0.18023 -0.32393,-0.25167 -0.26953,-0.2882 -0.25248,-0.32393 -0.19809,-0.36046 -0.1437,-0.3775 -0.0723,-0.39618 -0.0357,-0.39618"
         style="fill:none;stroke:#000000;stroke-width:0.02834646;stroke-linecap:round;stroke-linejoin:round;stroke-miterlimit:10;stroke-opacity:1;stroke-dasharray:none"
         id="path3327"
         inkscape:connector-curvature="0" /><path
         d="m 125.92822,556.39092 0,-17.85568"
         style="fill:none;stroke:#000000;stroke-width:0.02834646;stroke-linecap:round;stroke-linejoin:round;stroke-miterlimit:10;stroke-opacity:1;stroke-dasharray:none"
         id="path3329"
         inkscape:connector-curvature="0" /><path
         d="m 125.92822,538.53524 0.0357,-0.39618 0.0723,-0.39618 0.1437,-0.3775 0.19809,-0.36046 0.25248,-0.32393 0.26953,-0.2882 0.32393,-0.25167 0.36045,-0.18023 0.37751,-0.1437 0.39618,-0.0901 0.41404,-0.0179"
         style="fill:none;stroke:#000000;stroke-width:0.02834646;stroke-linecap:round;stroke-linejoin:round;stroke-miterlimit:10;stroke-opacity:1;stroke-dasharray:none"
         id="path3331"
         inkscape:connector-curvature="0" /><path
         d="m 128.7721,535.70922 7.65,0"
         style="fill:none;stroke:#000000;stroke-width:0.02834646;stroke-linecap:round;stroke-linejoin:round;stroke-miterlimit:10;stroke-opacity:1;stroke-dasharray:none"
         id="path3333"
         inkscape:connector-curvature="0" /><path
         d="m 136.4221,535.70922 0.39618,0.0179 0.39618,0.0901 0.3775,0.1437 0.36046,0.18023 0.32312,0.25167 0.28901,0.2882 0.233,0.32393 0.1989,0.36046 0.1437,0.3775 0.0901,0.39618 0.0179,0.39618"
         style="fill:none;stroke:#000000;stroke-width:0.02834646;stroke-linecap:round;stroke-linejoin:round;stroke-miterlimit:10;stroke-opacity:1;stroke-dasharray:none"
         id="path3335"
         inkscape:connector-curvature="0" /><path
         d="m 148.89607,464.69893 c 0,-13.3199 -10.78209,-24.10199 -24.102,-24.10199 -13.31991,0 -24.10199,10.78209 -24.10199,24.10199 0,13.31991 10.78208,24.102 24.10199,24.102 13.31991,0 24.102,-10.78209 24.102,-24.102 z"
         style="fill:none;stroke:#000000;stroke-width:0.02834646;stroke-linecap:round;stroke-linejoin:round;stroke-miterlimit:10;stroke-opacity:1;stroke-dasharray:none"
         id="path3337"
         inkscape:connector-curvature="0" /><path
         d="m 148.89607,406.01892 c 0,-13.31991 -10.78209,-24.10199 -24.102,-24.10199 -13.31991,0 -24.10199,10.78208 -24.10199,24.10199 0,13.31991 10.78208,24.102 24.10199,24.102 13.31991,0 24.102,-10.78209 24.102,-24.102 z"
         style="fill:none;stroke:#000000;stroke-width:0.02834646;stroke-linecap:round;stroke-linejoin:round;stroke-miterlimit:10;stroke-opacity:1;stroke-dasharray:none"
         id="path3339"
         inkscape:connector-curvature="0" /></g></g></svg>