<?xml version="1.0" encoding="UTF-8" standalone="no"?>
<!-- Created with Inkscape (http://www.inkscape.org/) -->

<svg
   xmlns:dc="http://purl.org/dc/elements/1.1/"
   xmlns:cc="http://creativecommons.org/ns#"
   xmlns:rdf="http://www.w3.org/1999/02/22-rdf-syntax-ns#"
   xmlns:svg="http://www.w3.org/2000/svg"
   xmlns="http://www.w3.org/2000/svg"
   xmlns:xlink="http://www.w3.org/1999/xlink"
   xmlns:sodipodi="http://sodipodi.sourceforge.net/DTD/sodipodi-0.dtd"
   xmlns:inkscape="http://www.inkscape.org/namespaces/inkscape"
   id="svg2985"
   version="1.1"
   inkscape:version="0.48.5 r10040"
   width="673.29742"
   height="460.71832"
   xml:space="preserve"
   sodipodi:docname="140182-1-v2.1-j2b-synth-laser-cut-v3-top.svg"><metadata
     id="metadata2991"><rdf:RDF><cc:Work
         rdf:about=""><dc:format>image/svg+xml</dc:format><dc:type
           rdf:resource="http://purl.org/dc/dcmitype/StillImage" /><dc:title></dc:title></cc:Work></rdf:RDF></metadata><defs
     id="defs2989"><color-profile
       name="sRGB-IEC61966-2.1"
       xlink:href="C:\windows\system32\spool\drivers\color\sRGB Color Space Profile.icm"
       id="color-profile5426" /><clipPath
       clipPathUnits="userSpaceOnUse"
       id="clipPath3127"><path
         d="m 2315.4,1779.86 35.918,0 0,35.6992 -35.918,0 0,-35.6992 z"
         id="path3129"
         inkscape:connector-curvature="0" /></clipPath><clipPath
       clipPathUnits="userSpaceOnUse"
       id="clipPath3137"><path
         d="m 2283.91,1779.86 32.5938,0 0,0.8867 -32.5938,0 0,-0.8867 z"
         id="path3139"
         inkscape:connector-curvature="0" /></clipPath><clipPath
       clipPathUnits="userSpaceOnUse"
       id="clipPath3147"><path
         d="m 2249.11,1779.86 35.918,0 0,35.6992 -35.918,0 0,-35.6992 z"
         id="path3149"
         inkscape:connector-curvature="0" /></clipPath><clipPath
       clipPathUnits="userSpaceOnUse"
       id="clipPath3161"><path
         d="m 8247.23,1779.86 35.918,0 0,35.6992 -35.918,0 0,-35.6992 z"
         id="path3163"
         inkscape:connector-curvature="0" /></clipPath><clipPath
       clipPathUnits="userSpaceOnUse"
       id="clipPath3171"><path
         d="m 8215.75,1779.86 32.5938,0 0,0.8867 -32.5938,0 0,-0.8867 z"
         id="path3173"
         inkscape:connector-curvature="0" /></clipPath><clipPath
       clipPathUnits="userSpaceOnUse"
       id="clipPath3181"><path
         d="m 8180.94,1779.86 35.918,0 0,35.6992 -35.918,0 0,-35.6992 z"
         id="path3183"
         inkscape:connector-curvature="0" /></clipPath></defs><sodipodi:namedview
     pagecolor="#ffffff"
     bordercolor="#666666"
     borderopacity="1"
     objecttolerance="10"
     gridtolerance="10"
     guidetolerance="10"
     inkscape:pageopacity="0"
     inkscape:pageshadow="2"
     inkscape:window-width="1366"
     inkscape:window-height="716"
     id="namedview2987"
     showgrid="false"
     inkscape:document-units="mm"
     units="mm"
     fit-margin-top="5"
     fit-margin-left="5"
     fit-margin-right="5"
     fit-margin-bottom="5"
     inkscape:zoom="0.89673726"
     inkscape:cx="297.05671"
     inkscape:cy="221.41137"
     inkscape:window-x="-8"
     inkscape:window-y="-8"
     inkscape:window-maximized="1"
     inkscape:current-layer="g2993" /><g
     id="g2993"
     inkscape:groupmode="layer"
     inkscape:label="140182-1-v2.1-j2b-synth-laser-cut-v3"
     transform="matrix(1.25,0,0,-1.25,-197.74898,760.38304)"><g
       id="g8457"><path
         d="m 442.99837,413.21916 c 0,-8.55033 -6.92989,-15.48023 -15.48022,-15.48023 -8.55033,0 -15.48022,6.9299 -15.48022,15.48023 0,8.55033 6.92989,15.48022 15.48022,15.48022 8.55033,0 15.48022,-6.92989 15.48022,-15.48022 z"
         style="fill:none;stroke:#ff00ff;stroke-width:2.84399962;stroke-linecap:round;stroke-linejoin:round;stroke-miterlimit:10;stroke-opacity:1;stroke-dasharray:none"
         id="path3511"
         inkscape:connector-curvature="0" /><path
         d="m 172.42246,273.7908 0,302.72408"
         style="fill:none;stroke:#000000;stroke-width:0.02834646;stroke-linecap:round;stroke-linejoin:round;stroke-miterlimit:10;stroke-opacity:1;stroke-dasharray:none"
         id="path2997"
         inkscape:connector-curvature="0" /><path
         d="m 172.42246,576.51488 0,3.40244"
         style="fill:none;stroke:#000000;stroke-width:0.02834646;stroke-linecap:round;stroke-linejoin:round;stroke-miterlimit:10;stroke-opacity:1;stroke-dasharray:none"
         id="path2999"
         inkscape:connector-curvature="0" /><path
         d="m 186.58831,594.08316 -0.97259,-0.0179 -0.95391,-0.10797 -0.95392,-0.16237 -0.93605,-0.23381 -0.93606,-0.28821 -0.89952,-0.35964 -0.86461,-0.41404 -0.84594,-0.46844 -0.80941,-0.53987 -0.7745,-0.5756 -0.71929,-0.62999 -0.68438,-0.68438 -0.64785,-0.73797 -0.57641,-0.77368 -0.53988,-0.81022 -0.46843,-0.84594 -0.41323,-0.8638 -0.36046,-0.90034 -0.28739,-0.91819 -0.23462,-0.95392 -0.16156,-0.95391 -0.10879,-0.95392 -0.0171,-0.97177"
         style="fill:none;stroke:#000000;stroke-width:0.02834646;stroke-linecap:round;stroke-linejoin:round;stroke-miterlimit:10;stroke-opacity:1;stroke-dasharray:none"
         id="path3001"
         inkscape:connector-curvature="0" /><path
         d="m 186.58831,594.08316 8.49594,0"
         style="fill:none;stroke:#000000;stroke-width:0.02834646;stroke-linecap:round;stroke-linejoin:round;stroke-miterlimit:10;stroke-opacity:1;stroke-dasharray:none"
         id="path3003"
         inkscape:connector-curvature="0" /><path
         d="m 195.08425,594.08316 473.36373,0"
         style="fill:none;stroke:#000000;stroke-width:0.02834646;stroke-linecap:round;stroke-linejoin:round;stroke-miterlimit:10;stroke-opacity:1;stroke-dasharray:none"
         id="path3005"
         inkscape:connector-curvature="0" /><path
         d="m 682.61383,579.91732 -0.0179,0.97177 -0.10797,0.95392 -0.16156,0.95391 -0.23462,0.95392 -0.2874,0.91819 -0.36045,0.90034 -0.41404,0.8638 -0.46763,0.84594 -0.54068,0.81022 -0.5756,0.77368 -0.64785,0.73797 -0.68438,0.68438 -0.7193,0.62999 -0.7745,0.5756 -0.81021,0.53987 -0.84595,0.46844 -0.8638,0.41404 -0.89952,0.35964 -0.93687,0.28821 -0.93605,0.23381 -0.95392,0.16237 -0.95391,0.10797 -0.97178,0.0179"
         style="fill:none;stroke:#000000;stroke-width:0.02834646;stroke-linecap:round;stroke-linejoin:round;stroke-miterlimit:10;stroke-opacity:1;stroke-dasharray:none"
         id="path3007"
         inkscape:connector-curvature="0" /><path
         d="m 682.61383,579.91732 0,-300.4566"
         style="fill:none;stroke:#000000;stroke-width:0.02834646;stroke-linecap:round;stroke-linejoin:round;stroke-miterlimit:10;stroke-opacity:1;stroke-dasharray:none"
         id="path3009"
         inkscape:connector-curvature="0" /><path
         d="m 682.61383,279.46072 0,-11.33983"
         style="fill:none;stroke:#000000;stroke-width:0.02834646;stroke-linecap:round;stroke-linejoin:round;stroke-miterlimit:10;stroke-opacity:1;stroke-dasharray:none"
         id="path3011"
         inkscape:connector-curvature="0" /><path
         d="m 668.44798,253.95504 0.97178,0.0179 0.95391,0.10798 0.95392,0.16237 0.93605,0.23381 0.93687,0.2882 0.89952,0.35965 0.8638,0.41404 0.84595,0.46843 0.81021,0.53988 0.7745,0.5756 0.7193,0.62999 0.68438,0.68438 0.64785,0.73796 0.5756,0.77369 0.54068,0.81022 0.46763,0.84594 0.41404,0.8638 0.36045,0.90034 0.2874,0.91819 0.23462,0.95392 0.16156,0.95391 0.10797,0.95392 0.0179,0.97177"
         style="fill:none;stroke:#000000;stroke-width:0.02834646;stroke-linecap:round;stroke-linejoin:round;stroke-miterlimit:10;stroke-opacity:1;stroke-dasharray:none"
         id="path3013"
         inkscape:connector-curvature="0" /><path
         d="m 668.44798,253.95504 -476.18976,0"
         style="fill:none;stroke:#000000;stroke-width:0.02834646;stroke-linecap:round;stroke-linejoin:round;stroke-miterlimit:10;stroke-opacity:1;stroke-dasharray:none"
         id="path3015"
         inkscape:connector-curvature="0" /><path
         d="m 192.25822,253.95504 -5.66991,0"
         style="fill:none;stroke:#000000;stroke-width:0.02834646;stroke-linecap:round;stroke-linejoin:round;stroke-miterlimit:10;stroke-opacity:1;stroke-dasharray:none"
         id="path3017"
         inkscape:connector-curvature="0" /><path
         d="m 172.42246,268.12089 0.0171,-0.97177 0.10879,-0.95392 0.16156,-0.95391 0.23462,-0.95392 0.28739,-0.91819 0.36046,-0.90034 0.41323,-0.8638 0.46843,-0.84594 0.53988,-0.81022 0.57641,-0.77369 0.64785,-0.73796 0.68438,-0.68438 0.71929,-0.62999 0.7745,-0.5756 0.80941,-0.53988 0.84594,-0.46843 0.86461,-0.41404 0.89952,-0.35965 0.93606,-0.2882 0.93605,-0.23381 0.95392,-0.16237 0.95391,-0.10798 0.97259,-0.0179"
         style="fill:none;stroke:#000000;stroke-width:0.02834646;stroke-linecap:round;stroke-linejoin:round;stroke-miterlimit:10;stroke-opacity:1;stroke-dasharray:none"
         id="path3019"
         inkscape:connector-curvature="0" /><path
         d="m 172.42246,268.12089 0,5.66991"
         style="fill:none;stroke:#000000;stroke-width:0.02834646;stroke-linecap:round;stroke-linejoin:round;stroke-miterlimit:10;stroke-opacity:1;stroke-dasharray:none"
         id="path3021"
         inkscape:connector-curvature="0" /><path
         d="m 441.684,413.21916 c 0,-7.83023 -6.33644,-14.16585 -14.16585,-14.16585 -7.83023,0 -14.16585,6.33562 -14.16585,14.16585 0,7.83022 6.33562,14.16585 14.16585,14.16585 7.82941,0 14.16585,-6.33563 14.16585,-14.16585 z"
         style="fill:none;stroke:#000000;stroke-width:0.02834646;stroke-linecap:round;stroke-linejoin:round;stroke-miterlimit:10;stroke-opacity:1;stroke-dasharray:none"
         id="path3023"
         inkscape:connector-curvature="0" /><path
         d="m 355.41025,424.0191 c 0,-3.92363 -3.16862,-7.09226 -7.09226,-7.09226 -3.92364,0 -7.09145,3.16863 -7.09145,7.09226 0,3.92364 3.16781,7.09226 7.09145,7.09226 3.92364,0 7.09226,-3.16862 7.09226,-7.09226 z"
         style="fill:none;stroke:#000000;stroke-width:0.02834646;stroke-linecap:round;stroke-linejoin:round;stroke-miterlimit:10;stroke-opacity:1;stroke-dasharray:none"
         id="path3025"
         inkscape:connector-curvature="0" /><path
         d="m 513.80975,424.0191 c 0,-3.92363 -3.16781,-7.09226 -7.09145,-7.09226 -3.92445,0 -7.09226,3.16863 -7.09226,7.09226 0,3.92364 3.16781,7.09226 7.09226,7.09226 3.92364,0 7.09145,-3.16862 7.09145,-7.09226 z"
         style="fill:none;stroke:#000000;stroke-width:0.02834646;stroke-linecap:round;stroke-linejoin:round;stroke-miterlimit:10;stroke-opacity:1;stroke-dasharray:none"
         id="path3027"
         inkscape:connector-curvature="0" /><path
         d="m 230.47249,524.81915 c 0,-2.5021 -2.03448,-4.53576 -4.53658,-4.53576 -2.5021,0 -4.53577,2.03366 -4.53577,4.53576 0,2.5021 2.03367,4.53577 4.53577,4.53577 2.5021,0 4.53658,-2.03367 4.53658,-4.53577 z"
         style="fill:none;stroke:#000000;stroke-width:0.02834646;stroke-linecap:round;stroke-linejoin:round;stroke-miterlimit:10;stroke-opacity:1;stroke-dasharray:none"
         id="path3029"
         inkscape:connector-curvature="0" /><path
         d="m 633.63615,524.81915 c 0,-2.5021 -2.03366,-4.53576 -4.53576,-4.53576 -2.50291,0 -4.53658,2.03366 -4.53658,4.53576 0,2.5021 2.03367,4.53577 4.53658,4.53577 2.5021,0 4.53576,-2.03367 4.53576,-4.53577 z"
         style="fill:none;stroke:#000000;stroke-width:0.02834646;stroke-linecap:round;stroke-linejoin:round;stroke-miterlimit:10;stroke-opacity:1;stroke-dasharray:none"
         id="path3031"
         inkscape:connector-curvature="0" /><path
         d="m 230.47249,323.21905 c 0,-2.5021 -2.03448,-4.53576 -4.53658,-4.53576 -2.5021,0 -4.53577,2.03366 -4.53577,4.53576 0,2.5021 2.03367,4.53577 4.53577,4.53577 2.5021,0 4.53658,-2.03367 4.53658,-4.53577 z"
         style="fill:none;stroke:#000000;stroke-width:0.02834646;stroke-linecap:round;stroke-linejoin:round;stroke-miterlimit:10;stroke-opacity:1;stroke-dasharray:none"
         id="path3033"
         inkscape:connector-curvature="0" /><path
         d="m 633.63615,323.21905 c 0,-2.5021 -2.03366,-4.53576 -4.53576,-4.53576 -2.50291,0 -4.53658,2.03366 -4.53658,4.53576 0,2.5021 2.03367,4.53577 4.53658,4.53577 2.5021,0 4.53576,-2.03367 4.53576,-4.53577 z"
         style="fill:none;stroke:#000000;stroke-width:0.02834646;stroke-linecap:round;stroke-linejoin:round;stroke-miterlimit:10;stroke-opacity:1;stroke-dasharray:none"
         id="path3035"
         inkscape:connector-curvature="0" /><path
         d="m 429.08419,292.61907 c 0,-0.8638 -0.70224,-1.56605 -1.56604,-1.56605 -0.8638,0 -1.56605,0.70225 -1.56605,1.56605 0,0.8638 0.70225,1.56604 1.56605,1.56604 0.8638,0 1.56604,-0.70224 1.56604,-1.56604 z"
         style="fill:none;stroke:#000000;stroke-width:0.02834646;stroke-linecap:round;stroke-linejoin:round;stroke-miterlimit:10;stroke-opacity:1;stroke-dasharray:none"
         id="path3037"
         inkscape:connector-curvature="0" /><path
         d="m 182.33994,280.01926 8.78414,0"
         style="fill:none;stroke:#000000;stroke-width:0.02834646;stroke-linecap:round;stroke-linejoin:round;stroke-miterlimit:10;stroke-opacity:1;stroke-dasharray:none"
         id="path3083"
         inkscape:connector-curvature="0" /><path
         d="m 191.12408,262.45098 -8.78414,0"
         style="fill:none;stroke:#000000;stroke-width:0.02834646;stroke-linecap:round;stroke-linejoin:round;stroke-miterlimit:10;stroke-opacity:1;stroke-dasharray:none"
         id="path3085"
         inkscape:connector-curvature="0" /><path
         d="m 191.12408,568.01894 -8.78414,0"
         style="fill:none;stroke:#000000;stroke-width:0.02834646;stroke-linecap:round;stroke-linejoin:round;stroke-miterlimit:10;stroke-opacity:1;stroke-dasharray:none"
         id="path3087"
         inkscape:connector-curvature="0" /><path
         d="m 182.33994,585.58723 8.78414,0"
         style="fill:none;stroke:#000000;stroke-width:0.02834646;stroke-linecap:round;stroke-linejoin:round;stroke-miterlimit:10;stroke-opacity:1;stroke-dasharray:none"
         id="path3089"
         inkscape:connector-curvature="0" /><path
         d="m 663.91222,585.58723 8.78414,0"
         style="fill:none;stroke:#000000;stroke-width:0.02834646;stroke-linecap:round;stroke-linejoin:round;stroke-miterlimit:10;stroke-opacity:1;stroke-dasharray:none"
         id="path3091"
         inkscape:connector-curvature="0" /><path
         d="m 672.69636,568.01894 -8.78414,0"
         style="fill:none;stroke:#000000;stroke-width:0.02834646;stroke-linecap:round;stroke-linejoin:round;stroke-miterlimit:10;stroke-opacity:1;stroke-dasharray:none"
         id="path3093"
         inkscape:connector-curvature="0" /><path
         d="m 663.91222,280.01926 8.78414,0"
         style="fill:none;stroke:#000000;stroke-width:0.02834646;stroke-linecap:round;stroke-linejoin:round;stroke-miterlimit:10;stroke-opacity:1;stroke-dasharray:none"
         id="path3095"
         inkscape:connector-curvature="0" /><path
         d="m 672.69636,262.45098 -8.78414,0"
         style="fill:none;stroke:#000000;stroke-width:0.02834646;stroke-linecap:round;stroke-linejoin:round;stroke-miterlimit:10;stroke-opacity:1;stroke-dasharray:none"
         id="path3097"
         inkscape:connector-curvature="0" /><path
         d="m 547.25444,501.41859 c 0,-2.50129 -2.03448,-4.53576 -4.53658,-4.53576 -2.5021,0 -4.53577,2.03447 -4.53577,4.53576 0,2.50291 2.03367,4.53658 4.53577,4.53658 2.5021,0 4.53658,-2.03367 4.53658,-4.53658 z"
         style="fill:none;stroke:#000000;stroke-width:0.02834646;stroke-linecap:round;stroke-linejoin:round;stroke-miterlimit:10;stroke-opacity:1;stroke-dasharray:none"
         id="path3405"
         inkscape:connector-curvature="0" /><path
         d="m 590.43637,434.81905 c 0,-2.5021 -2.03448,-4.53577 -4.53658,-4.53577 -2.5021,0 -4.53577,2.03367 -4.53577,4.53577 0,2.5021 2.03367,4.53577 4.53577,4.53577 2.5021,0 4.53658,-2.03367 4.53658,-4.53577 z"
         style="fill:none;stroke:#000000;stroke-width:0.02834646;stroke-linecap:round;stroke-linejoin:round;stroke-miterlimit:10;stroke-opacity:1;stroke-dasharray:none"
         id="path3407"
         inkscape:connector-curvature="0" /><path
         d="m 547.25444,368.2187 c 0,-2.50129 -2.03448,-4.53577 -4.53658,-4.53577 -2.5021,0 -4.53577,2.03448 -4.53577,4.53577 0,2.5021 2.03367,4.53658 4.53577,4.53658 2.5021,0 4.53658,-2.03448 4.53658,-4.53658 z"
         style="fill:none;stroke:#000000;stroke-width:0.02834646;stroke-linecap:round;stroke-linejoin:round;stroke-miterlimit:10;stroke-opacity:1;stroke-dasharray:none"
         id="path3409"
         inkscape:connector-curvature="0" /><path
         d="m 471.65399,344.81895 c 0,-2.5021 -2.03366,-4.53577 -4.53576,-4.53577 -2.5021,0 -4.53577,2.03367 -4.53577,4.53577 0,2.5021 2.03367,4.53577 4.53577,4.53577 2.5021,0 4.53576,-2.03367 4.53576,-4.53577 z"
         style="fill:none;stroke:#000000;stroke-width:0.02834646;stroke-linecap:round;stroke-linejoin:round;stroke-miterlimit:10;stroke-opacity:1;stroke-dasharray:none"
         id="path3411"
         inkscape:connector-curvature="0" /><path
         d="m 392.45384,344.81895 c 0,-2.5021 -2.03367,-4.53577 -4.53577,-4.53577 -2.5021,0 -4.53577,2.03367 -4.53577,4.53577 0,2.5021 2.03367,4.53577 4.53577,4.53577 2.5021,0 4.53577,-2.03367 4.53577,-4.53577 z"
         style="fill:none;stroke:#000000;stroke-width:0.02834646;stroke-linecap:round;stroke-linejoin:round;stroke-miterlimit:10;stroke-opacity:1;stroke-dasharray:none"
         id="path3413"
         inkscape:connector-curvature="0" /><path
         d="m 316.8542,368.2187 c 0,-2.50129 -2.03447,-4.53577 -4.53657,-4.53577 -2.50129,0 -4.53577,2.03448 -4.53577,4.53577 0,2.5021 2.03448,4.53658 4.53577,4.53658 2.5021,0 4.53657,-2.03448 4.53657,-4.53658 z"
         style="fill:none;stroke:#000000;stroke-width:0.02834646;stroke-linecap:round;stroke-linejoin:round;stroke-miterlimit:10;stroke-opacity:1;stroke-dasharray:none"
         id="path3415"
         inkscape:connector-curvature="0" /><path
         d="m 273.67228,434.81905 c 0,-2.5021 -2.03448,-4.53577 -4.53577,-4.53577 -2.50291,0 -4.53658,2.03367 -4.53658,4.53577 0,2.5021 2.03367,4.53577 4.53658,4.53577 2.50129,0 4.53577,-2.03367 4.53577,-4.53577 z"
         style="fill:none;stroke:#000000;stroke-width:0.02834646;stroke-linecap:round;stroke-linejoin:round;stroke-miterlimit:10;stroke-opacity:1;stroke-dasharray:none"
         id="path3417"
         inkscape:connector-curvature="0" /><path
         d="m 316.8542,501.41859 c 0,-2.50129 -2.03447,-4.53576 -4.53657,-4.53576 -2.50129,0 -4.53577,2.03447 -4.53577,4.53576 0,2.50291 2.03448,4.53658 4.53577,4.53658 2.5021,0 4.53657,-2.03367 4.53657,-4.53658 z"
         style="fill:none;stroke:#000000;stroke-width:0.02834646;stroke-linecap:round;stroke-linejoin:round;stroke-miterlimit:10;stroke-opacity:1;stroke-dasharray:none"
         id="path3419"
         inkscape:connector-curvature="0" /><path
         d="m 325.0798,501.41859 c 0,-7.05573 -5.70563,-12.76136 -12.76217,-12.76136 -7.05573,0 -12.76136,5.70563 -12.76136,12.76136 0,7.05654 5.70563,12.76217 12.76136,12.76217 7.05654,0 12.76217,-5.70563 12.76217,-12.76217 z"
         style="fill:none;stroke:#000000;stroke-width:0.02834646;stroke-linecap:round;stroke-linejoin:round;stroke-miterlimit:10;stroke-opacity:1;stroke-dasharray:none"
         id="path3421"
         inkscape:connector-curvature="0" /><path
         d="m 281.89787,434.81905 c 0,-7.05573 -5.70563,-12.76217 -12.76136,-12.76217 -7.05654,0 -12.76217,5.70644 -12.76217,12.76217 0,7.05573 5.70563,12.76217 12.76217,12.76217 7.05573,0 12.76136,-5.70644 12.76136,-12.76217 z"
         style="fill:none;stroke:#000000;stroke-width:0.02834646;stroke-linecap:round;stroke-linejoin:round;stroke-miterlimit:10;stroke-opacity:1;stroke-dasharray:none"
         id="path3423"
         inkscape:connector-curvature="0" /><path
         d="m 325.0798,368.2187 c 0,-7.05573 -5.70563,-12.76136 -12.76217,-12.76136 -7.05573,0 -12.76136,5.70563 -12.76136,12.76136 0,7.05654 5.70563,12.76217 12.76136,12.76217 7.05654,0 12.76217,-5.70563 12.76217,-12.76217 z"
         style="fill:none;stroke:#000000;stroke-width:0.02834646;stroke-linecap:round;stroke-linejoin:round;stroke-miterlimit:10;stroke-opacity:1;stroke-dasharray:none"
         id="path3425"
         inkscape:connector-curvature="0" /><path
         d="m 400.68024,344.81895 c 0,-7.05573 -5.70644,-12.76217 -12.76217,-12.76217 -7.05654,0 -12.76217,5.70644 -12.76217,12.76217 0,7.05573 5.70563,12.76217 12.76217,12.76217 7.05573,0 12.76217,-5.70644 12.76217,-12.76217 z"
         style="fill:none;stroke:#000000;stroke-width:0.02834646;stroke-linecap:round;stroke-linejoin:round;stroke-miterlimit:10;stroke-opacity:1;stroke-dasharray:none"
         id="path3427"
         inkscape:connector-curvature="0" /><path
         d="m 479.8804,344.81895 c 0,-7.05573 -5.70645,-12.76217 -12.76217,-12.76217 -7.05654,0 -12.76218,5.70644 -12.76218,12.76217 0,7.05573 5.70564,12.76217 12.76218,12.76217 7.05572,0 12.76217,-5.70644 12.76217,-12.76217 z"
         style="fill:none;stroke:#000000;stroke-width:0.02834646;stroke-linecap:round;stroke-linejoin:round;stroke-miterlimit:10;stroke-opacity:1;stroke-dasharray:none"
         id="path3429"
         inkscape:connector-curvature="0" /><path
         d="m 555.48003,368.2187 c 0,-7.05573 -5.70563,-12.76136 -12.76217,-12.76136 -7.05573,0 -12.76217,5.70563 -12.76217,12.76136 0,7.05654 5.70644,12.76217 12.76217,12.76217 7.05654,0 12.76217,-5.70563 12.76217,-12.76217 z"
         style="fill:none;stroke:#000000;stroke-width:0.02834646;stroke-linecap:round;stroke-linejoin:round;stroke-miterlimit:10;stroke-opacity:1;stroke-dasharray:none"
         id="path3431"
         inkscape:connector-curvature="0" /><path
         d="m 598.66196,434.81905 c 0,-7.05573 -5.70563,-12.76217 -12.76217,-12.76217 -7.05573,0 -12.76218,5.70644 -12.76218,12.76217 0,7.05573 5.70645,12.76217 12.76218,12.76217 7.05654,0 12.76217,-5.70644 12.76217,-12.76217 z"
         style="fill:none;stroke:#000000;stroke-width:0.02834646;stroke-linecap:round;stroke-linejoin:round;stroke-miterlimit:10;stroke-opacity:1;stroke-dasharray:none"
         id="path3433"
         inkscape:connector-curvature="0" /><path
         d="m 555.48003,501.41859 c 0,-7.05573 -5.70563,-12.76136 -12.76217,-12.76136 -7.05573,0 -12.76217,5.70563 -12.76217,12.76136 0,7.05654 5.70644,12.76217 12.76217,12.76217 7.05654,0 12.76217,-5.70563 12.76217,-12.76217 z"
         style="fill:none;stroke:#000000;stroke-width:0.02834646;stroke-linecap:round;stroke-linejoin:round;stroke-miterlimit:10;stroke-opacity:1;stroke-dasharray:none"
         id="path3435"
         inkscape:connector-curvature="0" /><path
         d="m 182.33994,568.01894 0,17.56829"
         style="fill:none;stroke:#000000;stroke-width:0.02834646;stroke-linecap:round;stroke-linejoin:round;stroke-miterlimit:10;stroke-opacity:1;stroke-dasharray:none"
         id="path3479"
         inkscape:connector-curvature="0" /><path
         d="m 191.12408,568.01894 0,17.56829"
         style="fill:none;stroke:#000000;stroke-width:0.02834646;stroke-linecap:round;stroke-linejoin:round;stroke-miterlimit:10;stroke-opacity:1;stroke-dasharray:none"
         id="path3481"
         inkscape:connector-curvature="0" /><path
         d="m 672.69636,568.01894 0,17.56829"
         style="fill:none;stroke:#000000;stroke-width:0.02834646;stroke-linecap:round;stroke-linejoin:round;stroke-miterlimit:10;stroke-opacity:1;stroke-dasharray:none"
         id="path3487"
         inkscape:connector-curvature="0" /><path
         d="m 663.91222,568.01894 0,17.56829"
         style="fill:none;stroke:#000000;stroke-width:0.02834646;stroke-linecap:round;stroke-linejoin:round;stroke-miterlimit:10;stroke-opacity:1;stroke-dasharray:none"
         id="path3489"
         inkscape:connector-curvature="0" /><path
         d="m 191.12408,262.45098 0,17.56828"
         style="fill:none;stroke:#000000;stroke-width:0.02834646;stroke-linecap:round;stroke-linejoin:round;stroke-miterlimit:10;stroke-opacity:1;stroke-dasharray:none"
         id="path3495"
         inkscape:connector-curvature="0" /><path
         d="m 182.33994,262.45098 0,17.56828"
         style="fill:none;stroke:#000000;stroke-width:0.02834646;stroke-linecap:round;stroke-linejoin:round;stroke-miterlimit:10;stroke-opacity:1;stroke-dasharray:none"
         id="path3497"
         inkscape:connector-curvature="0" /><path
         d="m 672.69636,262.45098 0,17.56828"
         style="fill:none;stroke:#000000;stroke-width:0.02834646;stroke-linecap:round;stroke-linejoin:round;stroke-miterlimit:10;stroke-opacity:1;stroke-dasharray:none"
         id="path3499"
         inkscape:connector-curvature="0" /><path
         d="m 663.91222,262.45098 0,17.56828"
         style="fill:none;stroke:#000000;stroke-width:0.02834646;stroke-linecap:round;stroke-linejoin:round;stroke-miterlimit:10;stroke-opacity:1;stroke-dasharray:none"
         id="path3501"
         inkscape:connector-curvature="0" /><g
         id="g4469"><path
           inkscape:connector-curvature="0"
           id="path3649"
           style="fill:none;stroke:#0000ff;stroke-width:1.72799981;stroke-linecap:round;stroke-linejoin:round;stroke-miterlimit:10;stroke-opacity:1;stroke-dasharray:none"
           d="m 654.8764,355.6189 2.51915,0" /><path
           inkscape:connector-curvature="0"
           id="path3651"
           style="fill:none;stroke:#0000ff;stroke-width:1.72799981;stroke-linecap:round;stroke-linejoin:round;stroke-miterlimit:10;stroke-opacity:1;stroke-dasharray:none"
           d="m 654.8764,348.41947 2.51915,0" /><path
           inkscape:connector-curvature="0"
           id="path3653"
           style="fill:#0000ff;fill-opacity:1;fill-rule:evenodd;stroke:none"
           d="m 653.65214,355.78126 -0.50415,0.0901 -0.50415,0.0357 -0.4863,-0.0544 -0.50334,-0.10717 -0.46843,-0.16237 -0.44977,-0.21595 -0.41404,-0.2882 -0.3775,-0.34179 -0.32474,-0.37831 -0.26953,-0.41404 -0.23381,-0.44977 -0.16237,-0.48629 -0.0901,-0.48548 -0.0357,-0.50416 0.0357,-0.50415 0.0901,-0.48548 0.16237,-0.4863 0.23381,-0.45057 0.26953,-0.41323 0.32474,-0.37832 0.3775,-0.34178 0.41404,-0.27035 0.44977,-0.23381 0.46843,-0.16237 0.50334,-0.10797 0.4863,-0.0357 0.50415,0.0179 0.50415,0.0901 0.27035,-1.11628 -0.28821,-0.0714 -0.5764,-0.0723 -0.59427,0 -0.5756,0.0544 -0.5756,0.12583 -0.55855,0.19809 -0.53987,0.26953 -0.48548,0.32393 -0.45058,0.37832 -0.41404,0.41404 -0.35964,0.46762 -0.28821,0.52201 -0.23381,0.54069 -0.18023,0.55774 -0.0901,0.57559 -0.0357,0.59427 0.0357,0.59427 0.0901,0.5756 0.18023,0.55774 0.23381,0.55854 0.28821,0.50335 0.35964,0.46843 0.41404,0.4319 0.45058,0.37832 0.48548,0.30606 0.53987,0.26954 0.55855,0.19809 0.5756,0.12583 0.5756,0.0723 0.59427,-0.0179 0.5764,-0.0722 0.28821,-0.0722 -0.27035,-1.11548" /><path
           inkscape:connector-curvature="0"
           id="path3655"
           style="fill:none;stroke:#0000ff;stroke-width:0.01800002;stroke-linecap:round;stroke-linejoin:round;stroke-miterlimit:10;stroke-opacity:1;stroke-dasharray:none"
           d="m 653.65214,355.78126 -0.50415,0.0901 -0.50415,0.0357 -0.4863,-0.0544 -0.50334,-0.10717 -0.46843,-0.16237 -0.44977,-0.21595 -0.41404,-0.2882 -0.3775,-0.34179 -0.32474,-0.37831 -0.26953,-0.41404 -0.23381,-0.44977 -0.16237,-0.48629 -0.0901,-0.48548 -0.0357,-0.50416 0.0357,-0.50415 0.0901,-0.48548 0.16237,-0.4863 0.23381,-0.45057 0.26953,-0.41323 0.32474,-0.37832 0.3775,-0.34178 0.41404,-0.27035 0.44977,-0.23381 0.46843,-0.16237 0.50334,-0.10797 0.4863,-0.0357 0.50415,0.0179 0.50415,0.0901 0.27035,-1.11628 -0.28821,-0.0714 -0.5764,-0.0723 -0.59427,0 -0.5756,0.0544 -0.5756,0.12583 -0.55855,0.19809 -0.53987,0.26953 -0.48548,0.32393 -0.45058,0.37832 -0.41404,0.41404 -0.35964,0.46762 -0.28821,0.52201 -0.23381,0.54069 -0.18023,0.55774 -0.0901,0.57559 -0.0357,0.59427 0.0357,0.59427 0.0901,0.5756 0.18023,0.55774 0.23381,0.55854 0.28821,0.50335 0.35964,0.46843 0.41404,0.4319 0.45058,0.37832 0.48548,0.30606 0.53987,0.26954 0.55855,0.19809 0.5756,0.12583 0.5756,0.0723 0.59427,-0.0179 0.5764,-0.0722 0.28821,-0.0722 -0.27035,-1.11548 z" /></g><path
         d="m 657.35983,469.01875 0,-1.92569"
         style="fill:none;stroke:#0000ff;stroke-width:1.43999839;stroke-linecap:round;stroke-linejoin:round;stroke-miterlimit:10;stroke-opacity:1;stroke-dasharray:none"
         id="path3513"
         inkscape:connector-curvature="0" /><path
         d="m 657.35983,468.06483 -5.76003,0"
         style="fill:none;stroke:#0000ff;stroke-width:1.43999839;stroke-linecap:round;stroke-linejoin:round;stroke-miterlimit:10;stroke-opacity:1;stroke-dasharray:none"
         id="path3515"
         inkscape:connector-curvature="0" /><path
         d="m 651.5998,469.01875 0,-1.92569"
         style="fill:none;stroke:#0000ff;stroke-width:1.43999839;stroke-linecap:round;stroke-linejoin:round;stroke-miterlimit:10;stroke-opacity:1;stroke-dasharray:none"
         id="path3517"
         inkscape:connector-curvature="0" /><path
         d="m 657.35983,464.59096 -5.76003,0"
         style="fill:none;stroke:#0000ff;stroke-width:1.43999839;stroke-linecap:round;stroke-linejoin:round;stroke-miterlimit:10;stroke-opacity:1;stroke-dasharray:none"
         id="path3519"
         inkscape:connector-curvature="0" /><path
         d="m 651.5998,464.59096 5.76003,-3.83352"
         style="fill:none;stroke:#0000ff;stroke-width:1.43999839;stroke-linecap:round;stroke-linejoin:round;stroke-miterlimit:10;stroke-opacity:1;stroke-dasharray:none"
         id="path3521"
         inkscape:connector-curvature="0" /><path
         d="m 657.35983,460.75744 -5.76003,0"
         style="fill:none;stroke:#0000ff;stroke-width:1.43999839;stroke-linecap:round;stroke-linejoin:round;stroke-miterlimit:10;stroke-opacity:1;stroke-dasharray:none"
         id="path3523"
         inkscape:connector-curvature="0" /><path
         d="m 651.5998,411.77895 0,1.9265"
         style="fill:none;stroke:#0000ff;stroke-width:1.43999839;stroke-linecap:round;stroke-linejoin:round;stroke-miterlimit:10;stroke-opacity:1;stroke-dasharray:none"
         id="path3525"
         inkscape:connector-curvature="0" /><path
         d="m 651.5998,413.70545 0.95392,0.95392"
         style="fill:none;stroke:#0000ff;stroke-width:1.43999839;stroke-linecap:round;stroke-linejoin:round;stroke-miterlimit:10;stroke-opacity:1;stroke-dasharray:none"
         id="path3527"
         inkscape:connector-curvature="0" /><path
         d="m 652.55372,414.65937 3.8522,0"
         style="fill:none;stroke:#0000ff;stroke-width:1.43999839;stroke-linecap:round;stroke-linejoin:round;stroke-miterlimit:10;stroke-opacity:1;stroke-dasharray:none"
         id="path3529"
         inkscape:connector-curvature="0" /><path
         d="m 656.40592,414.65937 0.95391,-0.95392"
         style="fill:none;stroke:#0000ff;stroke-width:1.43999839;stroke-linecap:round;stroke-linejoin:round;stroke-miterlimit:10;stroke-opacity:1;stroke-dasharray:none"
         id="path3531"
         inkscape:connector-curvature="0" /><path
         d="m 657.35983,413.70545 0,-1.9265"
         style="fill:none;stroke:#0000ff;stroke-width:1.43999839;stroke-linecap:round;stroke-linejoin:round;stroke-miterlimit:10;stroke-opacity:1;stroke-dasharray:none"
         id="path3533"
         inkscape:connector-curvature="0" /><path
         d="m 657.35983,411.77895 -0.95391,-0.95392"
         style="fill:none;stroke:#0000ff;stroke-width:1.43999839;stroke-linecap:round;stroke-linejoin:round;stroke-miterlimit:10;stroke-opacity:1;stroke-dasharray:none"
         id="path3535"
         inkscape:connector-curvature="0" /><path
         d="m 656.40592,410.82503 -3.8522,0"
         style="fill:none;stroke:#0000ff;stroke-width:1.43999839;stroke-linecap:round;stroke-linejoin:round;stroke-miterlimit:10;stroke-opacity:1;stroke-dasharray:none"
         id="path3537"
         inkscape:connector-curvature="0" /><path
         d="m 652.55372,410.82503 -0.95392,0.95392"
         style="fill:none;stroke:#0000ff;stroke-width:1.43999839;stroke-linecap:round;stroke-linejoin:round;stroke-miterlimit:10;stroke-opacity:1;stroke-dasharray:none"
         id="path3539"
         inkscape:connector-curvature="0" /><path
         d="m 651.5998,408.03554 4.80612,0"
         style="fill:none;stroke:#0000ff;stroke-width:1.43999839;stroke-linecap:round;stroke-linejoin:round;stroke-miterlimit:10;stroke-opacity:1;stroke-dasharray:none"
         id="path3541"
         inkscape:connector-curvature="0" /><path
         d="m 656.40592,408.03554 0.95391,-0.97259"
         style="fill:none;stroke:#0000ff;stroke-width:1.43999839;stroke-linecap:round;stroke-linejoin:round;stroke-miterlimit:10;stroke-opacity:1;stroke-dasharray:none"
         id="path3543"
         inkscape:connector-curvature="0" /><path
         d="m 657.35983,407.06295 0,-1.90783"
         style="fill:none;stroke:#0000ff;stroke-width:1.43999839;stroke-linecap:round;stroke-linejoin:round;stroke-miterlimit:10;stroke-opacity:1;stroke-dasharray:none"
         id="path3545"
         inkscape:connector-curvature="0" /><path
         d="m 657.35983,405.15512 -0.95391,-0.97178"
         style="fill:none;stroke:#0000ff;stroke-width:1.43999839;stroke-linecap:round;stroke-linejoin:round;stroke-miterlimit:10;stroke-opacity:1;stroke-dasharray:none"
         id="path3547"
         inkscape:connector-curvature="0" /><path
         d="m 656.40592,404.18334 -4.80612,0"
         style="fill:none;stroke:#0000ff;stroke-width:1.43999839;stroke-linecap:round;stroke-linejoin:round;stroke-miterlimit:10;stroke-opacity:1;stroke-dasharray:none"
         id="path3549"
         inkscape:connector-curvature="0" /><path
         d="m 657.35983,399.48521 -5.76003,0"
         style="fill:none;stroke:#0000ff;stroke-width:1.43999839;stroke-linecap:round;stroke-linejoin:round;stroke-miterlimit:10;stroke-opacity:1;stroke-dasharray:none"
         id="path3551"
         inkscape:connector-curvature="0" /><path
         d="m 651.5998,401.39304 0,-3.83352"
         style="fill:none;stroke:#0000ff;stroke-width:1.43999839;stroke-linecap:round;stroke-linejoin:round;stroke-miterlimit:10;stroke-opacity:1;stroke-dasharray:none"
         id="path3553"
         inkscape:connector-curvature="0" /><path
         d="m 651.5998,306.65908 3.8522,0"
         style="fill:none;stroke:#0000ff;stroke-width:1.43999839;stroke-linecap:round;stroke-linejoin:round;stroke-miterlimit:10;stroke-opacity:1;stroke-dasharray:none"
         id="path3555"
         inkscape:connector-curvature="0" /><path
         d="m 655.452,306.65908 1.90783,-1.92569"
         style="fill:none;stroke:#0000ff;stroke-width:1.43999839;stroke-linecap:round;stroke-linejoin:round;stroke-miterlimit:10;stroke-opacity:1;stroke-dasharray:none"
         id="path3557"
         inkscape:connector-curvature="0" /><path
         d="M 657.35983,304.73339 655.452,302.82475"
         style="fill:none;stroke:#0000ff;stroke-width:1.43999839;stroke-linecap:round;stroke-linejoin:round;stroke-miterlimit:10;stroke-opacity:1;stroke-dasharray:none"
         id="path3559"
         inkscape:connector-curvature="0" /><path
         d="m 655.452,302.82475 -3.8522,0"
         style="fill:none;stroke:#0000ff;stroke-width:1.43999839;stroke-linecap:round;stroke-linejoin:round;stroke-miterlimit:10;stroke-opacity:1;stroke-dasharray:none"
         id="path3561"
         inkscape:connector-curvature="0" /><path
         d="m 651.5998,297.15483 0,1.92651"
         style="fill:none;stroke:#0000ff;stroke-width:1.43999839;stroke-linecap:round;stroke-linejoin:round;stroke-miterlimit:10;stroke-opacity:1;stroke-dasharray:none"
         id="path3563"
         inkscape:connector-curvature="0" /><path
         d="m 651.5998,299.08134 0.95392,0.95391"
         style="fill:none;stroke:#0000ff;stroke-width:1.43999839;stroke-linecap:round;stroke-linejoin:round;stroke-miterlimit:10;stroke-opacity:1;stroke-dasharray:none"
         id="path3565"
         inkscape:connector-curvature="0" /><path
         d="m 652.55372,300.03525 3.8522,0"
         style="fill:none;stroke:#0000ff;stroke-width:1.43999839;stroke-linecap:round;stroke-linejoin:round;stroke-miterlimit:10;stroke-opacity:1;stroke-dasharray:none"
         id="path3567"
         inkscape:connector-curvature="0" /><path
         d="m 656.40592,300.03525 0.95391,-0.95391"
         style="fill:none;stroke:#0000ff;stroke-width:1.43999839;stroke-linecap:round;stroke-linejoin:round;stroke-miterlimit:10;stroke-opacity:1;stroke-dasharray:none"
         id="path3569"
         inkscape:connector-curvature="0" /><path
         d="m 657.35983,299.08134 0,-1.92651"
         style="fill:none;stroke:#0000ff;stroke-width:1.43999839;stroke-linecap:round;stroke-linejoin:round;stroke-miterlimit:10;stroke-opacity:1;stroke-dasharray:none"
         id="path3571"
         inkscape:connector-curvature="0" /><path
         d="m 657.35983,297.15483 -0.95391,-0.97177"
         style="fill:none;stroke:#0000ff;stroke-width:1.43999839;stroke-linecap:round;stroke-linejoin:round;stroke-miterlimit:10;stroke-opacity:1;stroke-dasharray:none"
         id="path3573"
         inkscape:connector-curvature="0" /><path
         d="m 656.40592,296.18306 -3.8522,0"
         style="fill:none;stroke:#0000ff;stroke-width:1.43999839;stroke-linecap:round;stroke-linejoin:round;stroke-miterlimit:10;stroke-opacity:1;stroke-dasharray:none"
         id="path3575"
         inkscape:connector-curvature="0" /><path
         d="m 652.55372,296.18306 -0.95392,0.97177"
         style="fill:none;stroke:#0000ff;stroke-width:1.43999839;stroke-linecap:round;stroke-linejoin:round;stroke-miterlimit:10;stroke-opacity:1;stroke-dasharray:none"
         id="path3577"
         inkscape:connector-curvature="0" /><path
         d="m 651.5998,293.41143 5.76003,0"
         style="fill:none;stroke:#0000ff;stroke-width:1.43999839;stroke-linecap:round;stroke-linejoin:round;stroke-miterlimit:10;stroke-opacity:1;stroke-dasharray:none"
         id="path3579"
         inkscape:connector-curvature="0" /><path
         d="m 657.35983,293.41143 0,-3.8522"
         style="fill:none;stroke:#0000ff;stroke-width:1.43999839;stroke-linecap:round;stroke-linejoin:round;stroke-miterlimit:10;stroke-opacity:1;stroke-dasharray:none"
         id="path3581"
         inkscape:connector-curvature="0" /><path
         d="m 657.35983,447.41885 -5.76003,0"
         style="fill:none;stroke:#0000ff;stroke-width:1.43999839;stroke-linecap:round;stroke-linejoin:round;stroke-miterlimit:10;stroke-opacity:1;stroke-dasharray:none"
         id="path3583"
         inkscape:connector-curvature="0" /><path
         d="m 651.5998,447.41885 1.92651,-1.92569"
         style="fill:none;stroke:#0000ff;stroke-width:1.43999839;stroke-linecap:round;stroke-linejoin:round;stroke-miterlimit:10;stroke-opacity:1;stroke-dasharray:none"
         id="path3585"
         inkscape:connector-curvature="0" /><path
         d="m 653.52631,445.49316 -1.92651,-1.92569"
         style="fill:none;stroke:#0000ff;stroke-width:1.43999839;stroke-linecap:round;stroke-linejoin:round;stroke-miterlimit:10;stroke-opacity:1;stroke-dasharray:none"
         id="path3587"
         inkscape:connector-curvature="0" /><path
         d="m 651.5998,443.56747 5.76003,0"
         style="fill:none;stroke:#0000ff;stroke-width:1.43999839;stroke-linecap:round;stroke-linejoin:round;stroke-miterlimit:10;stroke-opacity:1;stroke-dasharray:none"
         id="path3589"
         inkscape:connector-curvature="0" /><path
         d="m 657.35983,440.79503 0,-1.92569"
         style="fill:none;stroke:#0000ff;stroke-width:1.43999839;stroke-linecap:round;stroke-linejoin:round;stroke-miterlimit:10;stroke-opacity:1;stroke-dasharray:none"
         id="path3591"
         inkscape:connector-curvature="0" /><path
         d="m 657.35983,439.82325 -5.76003,0"
         style="fill:none;stroke:#0000ff;stroke-width:1.43999839;stroke-linecap:round;stroke-linejoin:round;stroke-miterlimit:10;stroke-opacity:1;stroke-dasharray:none"
         id="path3593"
         inkscape:connector-curvature="0" /><path
         d="m 651.5998,440.79503 0,-1.92569"
         style="fill:none;stroke:#0000ff;stroke-width:1.43999839;stroke-linecap:round;stroke-linejoin:round;stroke-miterlimit:10;stroke-opacity:1;stroke-dasharray:none"
         id="path3595"
         inkscape:connector-curvature="0" /><path
         d="m 651.5998,436.36724 5.76003,0"
         style="fill:none;stroke:#0000ff;stroke-width:1.43999839;stroke-linecap:round;stroke-linejoin:round;stroke-miterlimit:10;stroke-opacity:1;stroke-dasharray:none"
         id="path3597"
         inkscape:connector-curvature="0" /><path
         d="m 657.35983,436.36724 0,-2.88042"
         style="fill:none;stroke:#0000ff;stroke-width:1.43999839;stroke-linecap:round;stroke-linejoin:round;stroke-miterlimit:10;stroke-opacity:1;stroke-dasharray:none"
         id="path3599"
         inkscape:connector-curvature="0" /><path
         d="m 657.35983,433.48682 -0.95391,-0.95392"
         style="fill:none;stroke:#0000ff;stroke-width:1.43999839;stroke-linecap:round;stroke-linejoin:round;stroke-miterlimit:10;stroke-opacity:1;stroke-dasharray:none"
         id="path3601"
         inkscape:connector-curvature="0" /><path
         d="m 656.40592,432.5329 -3.8522,0"
         style="fill:none;stroke:#0000ff;stroke-width:1.43999839;stroke-linecap:round;stroke-linejoin:round;stroke-miterlimit:10;stroke-opacity:1;stroke-dasharray:none"
         id="path3603"
         inkscape:connector-curvature="0" /><path
         d="m 652.55372,432.5329 -0.95392,0.95392"
         style="fill:none;stroke:#0000ff;stroke-width:1.43999839;stroke-linecap:round;stroke-linejoin:round;stroke-miterlimit:10;stroke-opacity:1;stroke-dasharray:none"
         id="path3605"
         inkscape:connector-curvature="0" /><path
         d="m 651.5998,433.48682 0,2.88042"
         style="fill:none;stroke:#0000ff;stroke-width:1.43999839;stroke-linecap:round;stroke-linejoin:round;stroke-miterlimit:10;stroke-opacity:1;stroke-dasharray:none"
         id="path3607"
         inkscape:connector-curvature="0" /><path
         d="m 657.35983,429.74341 0,-1.9265"
         style="fill:none;stroke:#0000ff;stroke-width:1.43999839;stroke-linecap:round;stroke-linejoin:round;stroke-miterlimit:10;stroke-opacity:1;stroke-dasharray:none"
         id="path3609"
         inkscape:connector-curvature="0" /><path
         d="m 657.35983,428.77082 -5.76003,0"
         style="fill:none;stroke:#0000ff;stroke-width:1.43999839;stroke-linecap:round;stroke-linejoin:round;stroke-miterlimit:10;stroke-opacity:1;stroke-dasharray:none"
         id="path3611"
         inkscape:connector-curvature="0" /><path
         d="m 651.5998,429.74341 0,-1.9265"
         style="fill:none;stroke:#0000ff;stroke-width:1.43999839;stroke-linecap:round;stroke-linejoin:round;stroke-miterlimit:10;stroke-opacity:1;stroke-dasharray:none"
         id="path3613"
         inkscape:connector-curvature="0" /><path
         d="m 657.35983,556.13925 -5.76003,0"
         style="fill:none;stroke:#0000ff;stroke-width:1.43999839;stroke-linecap:round;stroke-linejoin:round;stroke-miterlimit:10;stroke-opacity:1;stroke-dasharray:none"
         id="path3615"
         inkscape:connector-curvature="0" /><path
         d="m 651.5998,556.13925 0,-2.88042"
         style="fill:none;stroke:#0000ff;stroke-width:1.43999839;stroke-linecap:round;stroke-linejoin:round;stroke-miterlimit:10;stroke-opacity:1;stroke-dasharray:none"
         id="path3617"
         inkscape:connector-curvature="0" /><path
         d="m 651.5998,553.25883 0.95392,-0.97178"
         style="fill:none;stroke:#0000ff;stroke-width:1.43999839;stroke-linecap:round;stroke-linejoin:round;stroke-miterlimit:10;stroke-opacity:1;stroke-dasharray:none"
         id="path3619"
         inkscape:connector-curvature="0" /><path
         d="m 652.55372,552.28705 1.9265,0"
         style="fill:none;stroke:#0000ff;stroke-width:1.43999839;stroke-linecap:round;stroke-linejoin:round;stroke-miterlimit:10;stroke-opacity:1;stroke-dasharray:none"
         id="path3621"
         inkscape:connector-curvature="0" /><path
         d="m 654.48022,552.28705 0.97178,0.97178"
         style="fill:none;stroke:#0000ff;stroke-width:1.43999839;stroke-linecap:round;stroke-linejoin:round;stroke-miterlimit:10;stroke-opacity:1;stroke-dasharray:none"
         id="path3623"
         inkscape:connector-curvature="0" /><path
         d="m 655.452,553.25883 0,2.88042"
         style="fill:none;stroke:#0000ff;stroke-width:1.43999839;stroke-linecap:round;stroke-linejoin:round;stroke-miterlimit:10;stroke-opacity:1;stroke-dasharray:none"
         id="path3625"
         inkscape:connector-curvature="0" /><path
         d="m 651.5998,549.49756 5.76003,0"
         style="fill:none;stroke:#0000ff;stroke-width:1.43999839;stroke-linecap:round;stroke-linejoin:round;stroke-miterlimit:10;stroke-opacity:1;stroke-dasharray:none"
         id="path3627"
         inkscape:connector-curvature="0" /><path
         d="M 657.35983,549.49756 655.452,547.58892"
         style="fill:none;stroke:#0000ff;stroke-width:1.43999839;stroke-linecap:round;stroke-linejoin:round;stroke-miterlimit:10;stroke-opacity:1;stroke-dasharray:none"
         id="path3629"
         inkscape:connector-curvature="0" /><path
         d="m 655.452,547.58892 1.90783,-1.9257"
         style="fill:none;stroke:#0000ff;stroke-width:1.43999839;stroke-linecap:round;stroke-linejoin:round;stroke-miterlimit:10;stroke-opacity:1;stroke-dasharray:none"
         id="path3631"
         inkscape:connector-curvature="0" /><path
         d="m 657.35983,545.66322 -5.76003,0"
         style="fill:none;stroke:#0000ff;stroke-width:1.43999839;stroke-linecap:round;stroke-linejoin:round;stroke-miterlimit:10;stroke-opacity:1;stroke-dasharray:none"
         id="path3633"
         inkscape:connector-curvature="0" /><path
         d="m 657.35983,542.87292 -5.76003,0"
         style="fill:none;stroke:#0000ff;stroke-width:1.43999839;stroke-linecap:round;stroke-linejoin:round;stroke-miterlimit:10;stroke-opacity:1;stroke-dasharray:none"
         id="path3635"
         inkscape:connector-curvature="0" /><path
         d="m 651.5998,542.87292 0,-2.87961"
         style="fill:none;stroke:#0000ff;stroke-width:1.43999839;stroke-linecap:round;stroke-linejoin:round;stroke-miterlimit:10;stroke-opacity:1;stroke-dasharray:none"
         id="path3637"
         inkscape:connector-curvature="0" /><path
         d="m 651.5998,539.99331 0.95392,-0.95391"
         style="fill:none;stroke:#0000ff;stroke-width:1.43999839;stroke-linecap:round;stroke-linejoin:round;stroke-miterlimit:10;stroke-opacity:1;stroke-dasharray:none"
         id="path3639"
         inkscape:connector-curvature="0" /><path
         d="m 652.55372,539.0394 1.9265,0"
         style="fill:none;stroke:#0000ff;stroke-width:1.43999839;stroke-linecap:round;stroke-linejoin:round;stroke-miterlimit:10;stroke-opacity:1;stroke-dasharray:none"
         id="path3641"
         inkscape:connector-curvature="0" /><path
         d="m 654.48022,539.0394 0.97178,0.95391"
         style="fill:none;stroke:#0000ff;stroke-width:1.43999839;stroke-linecap:round;stroke-linejoin:round;stroke-miterlimit:10;stroke-opacity:1;stroke-dasharray:none"
         id="path3643"
         inkscape:connector-curvature="0" /><path
         d="m 655.452,539.99331 0,2.87961"
         style="fill:none;stroke:#0000ff;stroke-width:1.43999839;stroke-linecap:round;stroke-linejoin:round;stroke-miterlimit:10;stroke-opacity:1;stroke-dasharray:none"
         id="path3645"
         inkscape:connector-curvature="0" /><path
         d="m 655.452,540.94723 1.90783,-1.90783"
         style="fill:none;stroke:#0000ff;stroke-width:1.43999839;stroke-linecap:round;stroke-linejoin:round;stroke-miterlimit:10;stroke-opacity:1;stroke-dasharray:none"
         id="path3647"
         inkscape:connector-curvature="0" /></g></g></svg>